<svg width="20" height="20" viewBox="0 0 20 20" fill="none" xmlns="http://www.w3.org/2000/svg">
<path fill-rule="evenodd" clip-rule="evenodd" d="M2.8331 10.4444C4.14415 7.81126 6.86223 6.0002 10.0003 6.0002C14.4155 6.0002 18.0006 9.58532 18.0006 14.0005C18.0006 14.5525 17.5526 15.0005 17.0006 15.0005C16.4486 15.0005 16.0005 14.5525 16.0005 14.0005C16.0005 10.6894 13.3114 8.00027 10.0003 8.00027C6.68922 8.00027 4.00013 10.6894 4.00013 14.0005C4.00013 17.3116 6.68922 20.0007 10.0003 20.0007C10.5524 20.0007 11.0004 19.5527 11.0004 19.0006C11.0004 18.4486 10.5524 18.0006 10.0003 18.0006C7.79226 18.0006 6.0002 16.2085 6.0002 14.0005C6.0002 11.7924 7.79226 10.0003 10.0003 10.0003C12.2084 10.0003 14.0005 11.7924 14.0005 14.0005C14.0005 15.6565 15.3445 17.0006 17.0006 17.0006C18.6566 17.0006 20.0007 15.6565 20.0007 14.0005C20.0007 8.48129 15.5195 4.00013 10.0003 4.00013C6.0782 4.00013 2.68012 6.26221 1.04306 9.55232C0.797057 10.0463 0.998038 10.6474 1.49205 10.8934C1.98607 11.1394 2.58709 10.9384 2.8331 10.4444ZM3.34813 18.4436C2.49711 17.1726 2.00007 15.6445 2.00007 14.0005C2.00007 13.4485 1.55205 13.0004 1.00003 13.0004C0.448015 13.0004 0 13.4485 0 14.0005C0 16.0555 0.622033 17.9676 1.68707 19.5577C1.99408 20.0157 2.61506 20.1387 3.07408 19.8317C3.53209 19.5247 3.65515 18.9026 3.34813 18.4436ZM2.60708 4.55016C4.64515 2.9531 7.21224 2.00007 10.0003 2.00007C12.7844 2.00007 15.3475 2.9501 17.3846 4.54315C17.8196 4.88316 18.4486 4.80616 18.7887 4.37214C19.1287 3.93713 19.0517 3.30811 18.6167 2.9681C16.2406 1.10904 13.2484 0 10.0003 0C6.74723 0 3.75111 1.11204 1.37303 2.9761C0.939017 3.31711 0.863032 3.94614 1.20304 4.38015C1.54405 4.81417 2.17307 4.89117 2.60708 4.55016Z" fill="#171D22"/>
</svg>
